<svg width="401" height="370" viewBox="0 0 401 370" fill="none" xmlns="http://www.w3.org/2000/svg">
<path d="M3 369.5C-3.99995 292 14.4336 296.809 29.3432 328.605C37.4999 346 48.0713 344.484 50.6625 340.5C59.9351 326.244 49.8649 309.486 50.6625 288.03C51.9172 254.276 65.2965 251.866 71.7196 253.084C96.5523 257.793 106.673 274.186 124.791 258.297C142.908 242.408 133.22 203.456 144.941 186.932C156.662 170.408 146.993 153.13 187.228 142.544C227.463 131.957 255.36 225.699 277.283 76.9094C299.207 -71.8805 376.266 42.6142 377.942 45.1984C393.954 69.8853 394.158 73.2746 399.811 83.9546" stroke="black" stroke-width="1.2"/>
</svg>
