<svg width="31" height="31" viewBox="0 0 31 31" fill="none" xmlns="http://www.w3.org/2000/svg">
<path d="M25.0388 1.97095H28.8835V5.81561H25.0388V1.97095ZM25.0388 7.73794H28.8835V11.5826H25.0388V7.73794ZM19.2719 1.97095H23.1165V5.81561H19.2719V1.97095ZM19.2719 7.73794H23.1165V11.5826H19.2719V7.73794Z" fill="black"/>
<path d="M26.9612 15.4272V21.1942H3.89328V5.81552H15.4273V3.89319H3.89328C3.38344 3.89319 2.89449 4.09572 2.53398 4.45623C2.17348 4.81673 1.97095 5.30568 1.97095 5.81552V21.1942C1.97095 21.704 2.17348 22.1929 2.53398 22.5535C2.89449 22.914 3.38344 23.1165 3.89328 23.1165H11.5826V26.9612H7.73794V28.8835H23.1166V26.9612H19.2719V23.1165H26.9612C27.4711 23.1165 27.96 22.914 28.3205 22.5535C28.681 22.1929 28.8836 21.704 28.8836 21.1942V15.4272H26.9612ZM17.3496 26.9612H13.5049V23.1165H17.3496V26.9612Z" fill="black"/>
</svg>
