<svg width="35" height="35" viewBox="0 0 35 35" fill="none" xmlns="http://www.w3.org/2000/svg">
<g clip-path="url(#clip0_1_1661)">
<path d="M24.2283 24.1597C25.5172 24.0257 26.4958 22.9029 26.4521 21.5558C26.4303 20.9083 26.1589 20.2944 25.6948 19.8424C25.2306 19.3905 24.6097 19.1356 23.9618 19.131H23.8715C22.4924 19.1747 21.4249 20.3427 21.4686 21.7349C21.5152 22.4092 21.7817 22.9917 22.1822 23.3951C20.6691 26.4053 18.3565 28.6043 14.8861 30.4451C12.5298 31.7034 10.0832 32.1519 7.63804 31.8374C5.63561 31.5679 4.07881 30.6694 3.10017 29.1883C1.67736 26.9893 1.54483 24.6082 2.74483 22.2286C3.58949 20.5233 4.92493 19.265 5.76959 18.6374C5.5405 17.8834 5.34756 17.1189 5.19144 16.3466C-1.25856 21.0621 -0.590117 27.4378 1.36425 30.4466C2.83221 32.6922 5.81182 34.0844 9.10454 34.0844C10.0035 34.0905 10.8996 33.9849 11.7725 33.7699C17.4667 32.6485 21.7803 29.2349 24.2269 24.1611L24.2283 24.1597ZM32.056 18.5922C28.6759 14.5961 23.6939 12.3956 18.0011 12.3956H17.289C17.0862 11.9914 16.7751 11.6514 16.3905 11.4135C16.0058 11.1757 15.5626 11.0493 15.1104 11.0485H15.0201C13.6424 11.0937 12.5735 12.2616 12.6186 13.6539C12.6623 15.0009 13.7749 16.0772 15.1089 16.0772H15.1992C15.669 16.0529 16.1224 15.8968 16.5077 15.6269C16.893 15.357 17.1945 14.9842 17.3778 14.5509H18.1788C21.5589 14.5509 24.7613 15.5383 27.6521 17.4694C29.8759 18.9519 31.4778 20.8815 32.3662 23.2175C33.1235 25.1019 33.0798 26.9427 32.2788 28.5155C31.0322 30.8951 28.9424 32.1971 26.1842 32.1971C24.406 32.1971 22.7152 31.6582 21.8254 31.2534C21.1852 31.8245 20.5174 32.364 19.8244 32.8699C21.7366 33.7684 23.6939 34.2621 25.5623 34.2621C29.8322 34.2621 32.9895 31.8825 34.1909 29.5029C35.4798 26.899 35.3909 22.4092 32.056 18.5922ZM9.46134 24.9228C9.50503 26.2699 10.6176 27.3476 11.9516 27.3476H12.0405C13.4196 27.3039 14.4871 26.1359 14.4434 24.7437C14.4216 24.0962 14.1502 23.4822 13.686 23.0303C13.2219 22.5783 12.6009 22.3234 11.9531 22.3189H11.8628C11.757 22.3119 11.6509 22.3268 11.5511 22.3626C9.72784 19.3102 8.97202 15.9883 9.23852 12.3956C9.41619 9.70143 10.306 7.36697 11.8628 5.4359C13.1531 3.77571 15.6434 2.96745 17.3342 2.92231C22.0482 2.83202 24.0492 8.7592 24.1832 11.1388C24.7613 11.2728 25.74 11.5874 26.407 11.8116C25.8725 4.53881 21.4264 0.766968 17.155 0.766968C13.1531 0.766968 9.46134 3.68541 7.99338 7.99609C5.94726 13.7427 7.28124 19.265 9.77299 23.6209C9.55017 23.9354 9.41619 24.4291 9.46134 24.9228Z" fill="black"/>
</g>
<defs>
<clipPath id="clip0_1_1661">
<rect width="34.9515" height="34.9515" fill="white" transform="translate(0.00976562 0.0388184)"/>
</clipPath>
</defs>
</svg>
