<svg width="32" height="32" viewBox="0 0 32 32" fill="none" xmlns="http://www.w3.org/2000/svg">
<path d="M31 21H29.9915V20.9495C29.9915 15.8895 27.2875 11.4555 23.252 9H28.2775C28.624 9.595 29.262 10 30 10C31.1045 10 32 9.1045 32 8C32 6.8955 31.1045 6 30 6C29.2615 6 28.624 6.405 28.2775 7H19V6C19 5.448 18.552 5 18 5H14C13.448 5 13 5.448 13 6V7H3.7225C3.376 6.405 2.73844 6 2 6C0.8955 6 0 6.8955 0 8C0 9.1045 0.8955 10 2 10C2.73847 10 3.376 9.595 3.7225 9H8.7475C4.712 11.456 2.00853 15.8895 2.00853 20.9495V21H1C0.448 21 0 21.448 0 22V26C0 26.552 0.448 27 1 27H5C5.552 27 6 26.552 6 26V22C6 21.448 5.552 21 5 21H4.00853V20.9495C4.00853 15.373 7.83553 10.6785 13 9.3435V10C13 10.552 13.448 11 14 11H18C18.552 11 19 10.552 19 10V9.3435C24.1645 10.679 27.9915 15.3735 27.9915 20.9495V21H27C26.448 21 26 21.448 26 22V26C26 26.552 26.448 27 27 27H31C31.552 27 32 26.552 32 26V22C32 21.448 31.552 21 31 21ZM4 25H2V23H4V25ZM17 9H15V7H17V9ZM30 25H28V23H30V25Z" fill="black"/>
</svg>
